<svg width="65" height="64" viewBox="0 0 65 64" fill="none" xmlns="http://www.w3.org/2000/svg">
<g clip-path="url(#clip0_106_3002)">
<path d="M22.3236 32C22.3252 27.258 21.071 22.6001 18.6886 18.5L17.7361 16.8425C19.7328 16.3673 21.7672 16.0683 23.8161 15.9487C26.5586 13.8362 30.6461 11.33 35.3586 10.5325L38.2549 10L36.5836 17.7325C41.7924 19.5 46.3874 23.09 49.4286 25.56C50.017 25.0675 50.6328 24.5862 51.2761 24.1162C56.2399 20.4912 61.6011 20.1412 61.8261 20.1287L64.2549 20L63.9211 22.4137C63.8849 22.6637 63.0724 28.005 59.9649 31.9788C63.0724 35.9538 63.8799 41.2912 63.9211 41.545L64.2549 44L61.8261 43.83C61.6011 43.8175 56.2399 43.4688 51.2761 39.8425C50.6445 39.3817 50.0378 38.9079 49.4561 38.4212C46.4099 40.9 41.8136 44.4962 36.5986 46.2637L38.2549 54L35.3586 53.4725C30.6724 52.68 26.5986 50.1725 23.8586 48.0575C21.7811 47.9374 19.7182 47.6349 17.6936 47.1538L18.6824 45.5062C21.0675 41.4047 22.3238 36.7446 22.3236 32Z" fill="#E8834A"/>
<path d="M1.80625 27.7187C2.5375 26.4837 3.87375 24.6062 6.08 22.6837C8.37668 20.7058 10.9988 19.141 13.83 18.0587L15.2262 20.5C17.2532 23.9903 18.3218 27.9542 18.3237 31.9904C18.3257 36.0265 17.261 39.9915 15.2375 43.4837L13.7687 45.93C10.967 44.8609 8.37004 43.318 6.09125 41.3687C2.12375 37.9337 0.255001 33.625 0.255001 32C0.255001 30.4612 1.255 28.6575 1.80625 27.7187ZM12.255 32C12.6506 32 13.0372 31.8827 13.3661 31.6629C13.695 31.4432 13.9514 31.1308 14.1027 30.7654C14.2541 30.3999 14.2937 29.9978 14.2166 29.6098C14.1394 29.2219 13.9489 28.8655 13.6692 28.5858C13.3895 28.3061 13.0331 28.1156 12.6452 28.0384C12.2572 27.9613 11.8551 28.0009 11.4896 28.1522C11.1242 28.3036 10.8118 28.56 10.5921 28.8889C10.3723 29.2178 10.255 29.6044 10.255 30C10.255 30.5304 10.4657 31.0391 10.8408 31.4142C11.2158 31.7893 11.7246 32 12.255 32Z" fill="#E8834A"/>
</g>
<defs>
<clipPath id="clip0_106_3002">
<rect width="64" height="64" fill="white" transform="matrix(-1 0 0 1 64.2549 0)"/>
</clipPath>
</defs>
</svg>
