<svg width="77" height="76" viewBox="0 0 77 76" fill="none" xmlns="http://www.w3.org/2000/svg">
<g clip-path="url(#clip0_106_2965)">
<path d="M37.3617 18.7076C38.6617 20.312 39.3728 22.3183 39.3829 24.4109C39.3931 26.5035 38.7018 28.5635 37.4178 30.2669L47.9237 43.1968C49.8749 45.5982 50.7588 48.7036 50.3808 51.8299C50.0028 54.9561 48.394 57.8471 45.9082 59.8668C43.4225 61.8866 40.2634 62.8696 37.126 62.5998C33.9886 62.3299 31.1298 60.8292 29.1786 58.4277L21.8216 49.3732L38.5512 50.8123L32.9276 55.3816C34.0984 56.8224 35.8136 57.7228 37.6961 57.8848C39.5785 58.0467 41.474 57.4569 42.9654 56.245C44.4569 55.0332 45.4222 53.2986 45.6489 51.4228C45.8757 49.5471 45.3454 47.6839 44.1747 46.243L33.6688 33.3131C29.6741 35.176 25.0142 34.1519 22.3215 30.838C19.0697 26.8359 19.8541 20.9071 23.978 17.5563C28.1394 14.175 34.1099 14.7055 37.3617 18.7076ZM32.8065 28.4217C33.8008 27.6138 34.4443 26.4575 34.5955 25.207C34.7467 23.9565 34.3932 22.7143 33.6127 21.7537C32.8322 20.7932 31.6887 20.1929 30.4337 20.0849C29.1788 19.977 27.9151 20.3702 26.9208 21.1781C25.9265 21.986 25.283 23.1424 25.1318 24.3929C24.9806 25.6434 25.3342 26.8856 26.1146 27.8461C26.8951 28.8067 28.0386 29.407 29.2936 29.5149C30.5486 29.6229 31.8122 29.2296 32.8065 28.4217Z" fill="#E8B94A"/>
</g>
<defs>
<clipPath id="clip0_106_2965">
<rect width="57.9668" height="56" fill="white" transform="matrix(-0.912871 0.408248 0.408248 0.912871 53.3208 0.900391)"/>
</clipPath>
</defs>
</svg>
