<?xml version="1.0"?>
<svg xmlns="http://www.w3.org/2000/svg" xmlns:xlink="http://www.w3.org/1999/xlink" version="1.1" xml:space="preserve">
  <defs>
    <symbol id="gal-ochka" width="100%" height="100%" viewBox="0 0 12 10">
      <path d="M6.23497 8.79934C5.9649 9.16589 5.54433 9.39118 5.0896 9.41357C4.63487 9.43619 4.19445 9.25292 3.88975 8.91452L1.15929 5.88444C0.725328 5.40316 0.763876 4.66128 1.24515 4.22732C1.72689 3.79336 2.46831 3.83214 2.90227 4.31365L4.83407 6.45758C4.8627 6.48944 4.90425 6.50652 4.94695 6.50444C4.98988 6.50236 5.02912 6.4809 5.05475 6.44673L9.02546 1.06128C9.40979 0.539605 10.1443 0.428577 10.6662 0.813137C11.1876 1.1977 11.2984 1.93219 10.9139 2.45363L6.23497 8.79934Z" fill="currentColor" />
    </symbol>
    <symbol id="key" width="100%" height="100%" viewBox="0 0 26 26">
      <path fill-rule="evenodd" clip-rule="evenodd" d="M23.3996 10.4C23.3996 14.7078 19.9074 18.2 15.5996 18.2C14.8116 18.2 14.0509 18.0831 13.3338 17.8658L10.3996 20.8H7.79961V23.4H2.59961V18.2L8.1338 12.6658C7.91647 11.9487 7.79961 11.188 7.79961 10.4C7.79961 6.09215 11.2918 2.59998 15.5996 2.59998C19.9074 2.59998 23.3996 6.09215 23.3996 10.4ZM15.5996 5.19998C14.8816 5.19998 14.2996 5.78201 14.2996 6.49998C14.2996 7.21795 14.8816 7.79998 15.5996 7.79998C17.0355 7.79998 18.1996 8.96404 18.1996 10.4C18.1996 11.1179 18.7816 11.7 19.4996 11.7C20.2176 11.7 20.7996 11.1179 20.7996 10.4C20.7996 7.52809 18.4715 5.19998 15.5996 5.19998Z" fill="currentColor" />
    </symbol>
    <symbol id="cross" width="100%" height="100%" viewBox="0 0 8 8">
      <path d="M1 1L4 4M4 4L7 1M4 4L1 7M4 4L7 7" fill="none" stroke="currentColor" stroke-width="1.5" stroke-linecap="round" stroke-linejoin="round" />
    </symbol>
    <symbol id="plus" width="100%" height="100%" viewBox="0 0 12 12">
      <path d="M6 1V6M6 11V6M6 6H1M6 6H11" fill="none" stroke="currentColor" stroke-width="1.5" stroke-linecap="round" stroke-linejoin="round" />
    </symbol>
    <symbol id="to-down" width="100%" height="100%" viewBox="0 0 10 6">
      <path d="M1 1L5 5L9 1" fill="none" stroke="currentColor" stroke-width="1.5" stroke-linecap="round" stroke-linejoin="round" />
    </symbol>
    <symbol id="arrow-right" width="100%" height="100%" viewBox="0 0 20 10">
      <path d="M15 5H1" stroke="currentColor" stroke-width="2" stroke-linecap="round" stroke-linejoin="round" />
      <path d="M19.7152 4.79657L14.265 0.903565C13.7355 0.525354 13 0.903853 13 1.55455V8.44545C13 9.09615 13.7355 9.47465 14.265 9.09644L19.7152 5.20343C19.8548 5.10373 19.8548 4.89627 19.7152 4.79657Z" fill="currentColor" />
    </symbol>
    <symbol id="window-arrow-right" width="100%" height="100%" viewBox="0 0 14 14">
      <path d="M1 7H13M13 7L7 1M13 7L7 13" fill="none" stroke="currentColor" stroke-width="1.5" stroke-linecap="round" stroke-linejoin="round" />
    </symbol>
    <symbol id="window-arrow-left" width="100%" height="100%" viewBox="0 0 14 14">
      <path d="M13 7H1M1 7L7 1M1 7L7 13" fill="none" stroke="currentColor" stroke-width="1.5" stroke-linecap="round" stroke-linejoin="round" />
    </symbol>
    <symbol id="refresh" width="100%" height="100%" viewBox="0 0 14 14">
      <path fill-rule="evenodd" clip-rule="evenodd" d="M2.25 7C2.25 4.37665 4.37665 2.25 7 2.25C8.56591 2.25 9.95589 3.00775 10.8216 4.17835L9 6H14V1L11.8911 3.10888C10.7465 1.67203 8.98143 0.75 7 0.75C3.54822 0.75 0.75 3.54822 0.75 7C0.75 10.4518 3.54822 13.25 7 13.25C9.42987 13.25 11.5345 11.8632 12.5681 9.84138C12.7566 9.47256 12.6105 9.02073 12.2417 8.8322C11.8729 8.64366 11.421 8.7898 11.2325 9.15862C10.4453 10.6985 8.84481 11.75 7 11.75C4.37665 11.75 2.25 9.62335 2.25 7Z" fill="currentColor" />
    </symbol>
    <symbol id="lock" width="100%" height="100%" viewBox="0 0 8 11">
      <path fill-rule="evenodd" clip-rule="evenodd" d="M4 0C2.61929 0 1.5 1.11929 1.5 2.5V3.5H1C0.447715 3.5 0 3.94772 0 4.5V9.5C0 10.0523 0.447715 10.5 1 10.5H7C7.55228 10.5 8 10.0523 8 9.5V4.5C8 3.94772 7.55228 3.5 7 3.5H6.5V2.5C6.5 1.11929 5.38071 0 4 0ZM5.5 3.5V2.5C5.5 1.67157 4.82843 1 4 1C3.17157 1 2.5 1.67157 2.5 2.5V3.5H5.5Z" fill="currentColor" />
    </symbol>
    <symbol id="dots-vertical" width="100%" height="100%" viewBox="0 0 3 14">
      <path fill-rule="evenodd" clip-rule="evenodd" d="M3 2C3 2.82843 2.32843 3.5 1.5 3.5C0.671573 3.5 0 2.82843 0 2C0 1.17157 0.671573 0.5 1.5 0.5C2.32843 0.5 3 1.17157 3 2ZM3 7.25C3 8.07843 2.32843 8.75 1.5 8.75C0.671573 8.75 0 8.07843 0 7.25C0 6.42157 0.671573 5.75 1.5 5.75C2.32843 5.75 3 6.42157 3 7.25ZM1.5 14C2.32843 14 3 13.3284 3 12.5C3 11.6716 2.32843 11 1.5 11C0.671573 11 0 11.6716 0 12.5C0 13.3284 0.671573 14 1.5 14Z" fill="currentColor" />
    </symbol>
    <symbol id="window-toggle" width="100%" height="100%" viewBox="0 0 14 14">
      <path fill-rule="evenodd" clip-rule="evenodd" d="M14 0H0V14H14V0ZM9 2H2V12H9V2Z" fill="currentColor" />
    </symbol>
    <symbol id="extention" width="100%" height="100%" viewBox="0 0 15 15">
      <path fill-rule="evenodd" clip-rule="evenodd" d="M7.5 3H10C11.1046 3 12 3.89543 12 5V7.5H13.5C14.3284 7.5 15 8.17157 15 9C15 9.82843 14.3284 10.5 13.5 10.5H12V13C12 14.1046 11.1046 15 10 15H7.5V13.5C7.5 12.6716 6.82843 12 6 12C5.17157 12 4.5 12.6716 4.5 13.5V15H2C0.895431 15 0 14.1046 0 13V10.5H1.5C2.32843 10.5 3 9.82843 3 9C3 8.17157 2.32843 7.5 1.5 7.5H0V5C0 3.89543 0.895431 3 2 3H4.5V2C4.5 1.17157 5.17157 0.5 6 0.5C6.82843 0.5 7.5 1.17157 7.5 2V3Z" fill="currentColor" />
    </symbol>
    <symbol id="star" width="100%" height="100%" viewBox="0 0 14 14">
      <path fill-rule="evenodd" clip-rule="evenodd" d="M6.38212 0.880047C6.5767 0.281196 7.42392 0.281194 7.6185 0.880047L8.91374 4.8664H13.1052C13.7349 4.8664 13.9967 5.67216 13.4873 6.04226L10.0963 8.50596L11.3916 12.4923C11.5861 13.0912 10.9007 13.5891 10.3913 13.219L7.00031 10.7553L3.60932 13.219C3.09991 13.5891 2.41449 13.0912 2.60907 12.4923L3.90432 8.50596L0.513326 6.04226C0.00391331 5.67215 0.265715 4.8664 0.895386 4.8664H5.08688L6.38212 0.880047ZM7.00031 3.02255L6.14099 5.66726C6.05397 5.93507 5.8044 6.1164 5.52281 6.1164H2.742L4.99172 7.75092C5.21954 7.91644 5.31486 8.20982 5.22785 8.47764L4.36853 11.1223L6.61825 9.48783C6.84607 9.32231 7.15456 9.32231 7.38237 9.48783L9.6321 11.1223L8.77278 8.47764C8.68576 8.20982 8.78109 7.91643 9.0089 7.75092L11.2586 6.1164H8.47782C8.19622 6.1164 7.94665 5.93507 7.85963 5.66726L7.00031 3.02255Z" fill="currentColor" />
    </symbol>
    <symbol id="share" width="100%" height="100%" viewBox="0 0 12 15">
      <path fill-rule="evenodd" clip-rule="evenodd" d="M6.44194 0.558058C6.19786 0.313981 5.80214 0.313981 5.55806 0.558058L3.55806 2.55806C3.31398 2.80214 3.31398 3.19786 3.55806 3.44194C3.80214 3.68602 4.19786 3.68602 4.44194 3.44194L5.375 2.50888V9C5.375 9.34518 5.65482 9.625 6 9.625C6.34518 9.625 6.625 9.34518 6.625 9V2.50888L7.55806 3.44194C7.80214 3.68602 8.19786 3.68602 8.44194 3.44194C8.68602 3.19786 8.68602 2.80214 8.44194 2.55806L6.44194 0.558058ZM1.625 6.5C1.625 6.01675 2.01675 5.625 2.5 5.625H3.5C3.84518 5.625 4.125 5.34518 4.125 5C4.125 4.65482 3.84518 4.375 3.5 4.375H2.5C1.32639 4.375 0.375 5.3264 0.375 6.5V12.5C0.375 13.6736 1.32639 14.625 2.5 14.625H9.5C10.6736 14.625 11.625 13.6736 11.625 12.5V6.5C11.625 5.3264 10.6736 4.375 9.5 4.375H8.5C8.15482 4.375 7.875 4.65482 7.875 5C7.875 5.34518 8.15482 5.625 8.5 5.625H9.5C9.98325 5.625 10.375 6.01675 10.375 6.5V12.5C10.375 12.9832 9.98325 13.375 9.5 13.375H2.5C2.01675 13.375 1.625 12.9832 1.625 12.5V6.5Z" fill="currentColor" />
    </symbol>
    <symbol id="menu" width="100%" height="100%" viewBox="0 0 20 18">
      <path fill-rule="evenodd" clip-rule="evenodd" d="M0.199951 2.0001C0.199951 1.2269 0.826752 0.600098 1.59995 0.600098H18.4C19.1732 0.600098 19.8 1.2269 19.8 2.0001C19.8 2.7733 19.1732 3.4001 18.4 3.4001H1.59995C0.826752 3.4001 0.199951 2.7733 0.199951 2.0001Z" fill="currentColor" />
      <path fill-rule="evenodd" clip-rule="evenodd" d="M0.199951 9.0001C0.199951 8.2269 0.826752 7.6001 1.59995 7.6001H18.4C19.1732 7.6001 19.8 8.2269 19.8 9.0001C19.8 9.7733 19.1732 10.4001 18.4 10.4001H1.59995C0.826752 10.4001 0.199951 9.7733 0.199951 9.0001Z" fill="currentColor" />
      <path fill-rule="evenodd" clip-rule="evenodd" d="M0.199951 16.0001C0.199951 15.2269 0.826752 14.6001 1.59995 14.6001H18.4C19.1732 14.6001 19.8 15.2269 19.8 16.0001C19.8 16.7733 19.1732 17.4001 18.4 17.4001H1.59995C0.826752 17.4001 0.199951 16.7733 0.199951 16.0001Z" fill="currentColor" />
    </symbol>
    <symbol id="menu-alt" width="100%" height="100%" viewBox="0 0 26 26">
      <path fill-rule="evenodd" clip-rule="evenodd" d="M3.90039 6.50001C3.90039 5.78204 4.48242 5.20001 5.20039 5.20001H20.8004C21.5184 5.20001 22.1004 5.78204 22.1004 6.50001C22.1004 7.21798 21.5184 7.80001 20.8004 7.80001H5.20039C4.48242 7.80001 3.90039 7.21798 3.90039 6.50001Z" fill="currentColor" />
      <path fill-rule="evenodd" clip-rule="evenodd" d="M3.90039 13C3.90039 12.282 4.48242 11.7 5.20039 11.7H20.8004C21.5184 11.7 22.1004 12.282 22.1004 13C22.1004 13.718 21.5184 14.3 20.8004 14.3H5.20039C4.48242 14.3 3.90039 13.718 3.90039 13Z" fill="currentColor" />
      <path fill-rule="evenodd" clip-rule="evenodd" d="M11.7004 19.5C11.7004 18.782 12.2824 18.2 13.0004 18.2H20.8004C21.5184 18.2 22.1004 18.782 22.1004 19.5C22.1004 20.218 21.5184 20.8 20.8004 20.8H13.0004C12.2824 20.8 11.7004 20.218 11.7004 19.5Z" fill="currentColor" />
    </symbol>
    <symbol id="address" width="100%" height="100%" viewBox="0 0 20 24">
      <path d="M9.65847 0.00598635C4.8902 0.173294 0.928941 3.89343 0.471305 8.64202C0.37781 9.59174 0.431939 10.5119 0.599246 11.3928C0.599246 11.3928 0.614009 11.4961 0.663217 11.6929C0.810842 12.3523 1.03228 12.992 1.30784 13.5924C2.2674 15.8658 4.48669 19.6696 9.46656 23.808C9.77165 24.0639 10.2194 24.0639 10.5295 23.808C15.5093 19.6745 17.7286 15.8707 18.6931 13.5874C18.9736 12.9871 19.1901 12.3523 19.3377 11.688C19.382 11.4961 19.4017 11.3878 19.4017 11.3878C19.5149 10.7973 19.5739 10.1921 19.5739 9.57205C19.5739 4.169 15.1009 -0.185925 9.65847 0.00598635ZM9.998 14.3354C7.42934 14.3354 5.34783 12.2539 5.34783 9.68523C5.34783 7.11657 7.42934 5.03506 9.998 5.03506C12.5667 5.03506 14.6482 7.11657 14.6482 9.68523C14.6482 12.2539 12.5667 14.3354 9.998 14.3354Z" fill="currentColor" />
    </symbol>
    <symbol id="phone" width="100%" height="100%" viewBox="0 0 24 24">
      <path d="M12.8 6.40002C12.3584 6.40002 12 6.75842 12 7.20002C12 7.64162 12.3584 8.00002 12.8 8.00002C14.5648 8.00002 16 9.43522 16 11.2C16 11.6416 16.3584 12 16.8 12C17.2416 12 17.6 11.6416 17.6 11.2C17.6 8.55362 15.4464 6.40002 12.8 6.40002Z" fill="currentColor" />
      <path d="M12.8 3.19995C12.3584 3.19995 12 3.55835 12 3.99995C12 4.44155 12.3584 4.79995 12.8 4.79995C16.3296 4.79995 19.2 7.67035 19.2 11.2C19.2 11.6416 19.5584 12 20 12C20.4416 12 20.8 11.6416 20.8 11.2C20.8 6.78875 17.2112 3.19995 12.8 3.19995Z" fill="currentColor" />
      <path d="M12.8 0C12.3584 0 12 0.3584 12 0.8C12 1.2416 12.3584 1.6 12.8 1.6C18.0944 1.6 22.4 5.9056 22.4 11.2C22.4 11.6416 22.7584 12 23.2 12C23.6416 12 24 11.6416 24 11.2C24 5.024 18.9744 0 12.8 0Z" fill="currentColor" />
      <path d="M21.6 17.6C19.2768 17.6 17.064 17.0944 15.024 16.0976C14.832 16.0016 14.6112 15.9904 14.4112 16.0608C14.2096 16.1312 14.0448 16.2784 13.952 16.4688L12.6944 19.072C9.44 17.256 6.7456 14.5632 4.9312 11.3088L7.5328 10.048C7.7248 9.95518 7.8704 9.79038 7.9408 9.58878C8.0096 9.38878 7.9968 9.16798 7.9024 8.97598C6.9056 6.93598 6.4 4.72318 6.4 2.39998C6.4 1.95838 6.0416 1.59998 5.6 1.59998H0.8C0.3584 1.59998 0 1.95838 0 2.39998C0 14.3104 9.6896 24 21.6 24C22.0416 24 22.4 23.6416 22.4 23.2V18.4C22.4 17.9584 22.0416 17.6 21.6 17.6Z" fill="currentColor" />
    </symbol>
    <symbol id="link" width="100%" height="100%" viewBox="0 0 10 10">
      <path d="M9.0142 0H2.43294C1.88855 0 1.44744 0.441238 1.44744 0.985493C1.44744 1.52975 1.88855 1.97099 2.43294 1.97099H6.63495L0.288635 8.3177C-0.0962329 8.70256 -0.096234 9.32658 0.288765 9.71145C0.481134 9.90382 0.733419 10 0.985574 10C1.23773 10 1.49002 9.90368 1.68252 9.71132L8.02883 3.36461V7.56675C8.02883 8.11101 8.46994 8.55224 9.01433 8.55224C9.55871 8.55224 9.99982 8.11101 9.99982 7.56675V0.985493C9.99969 0.441107 9.55845 0 9.0142 0Z" fill="currentColor" />
    </symbol>
    <symbol id="calendar" width="100%" height="100%" viewBox="0 0 18 17">
      <path fill-rule="evenodd" clip-rule="evenodd" d="M11 0H7L7 2C7 3.10457 6.10457 4 5 4C3.89543 4 3 3.10457 3 2L3 0.0761193C2.02492 0.172031 1.36857 0.388793 0.87868 0.87868C0 1.75736 0 3.17157 0 6V11C0 13.8284 0 15.2426 0.87868 16.1213C1.75736 17 3.17157 17 6 17H12C14.8284 17 16.2426 17 17.1213 16.1213C18 15.2426 18 13.8284 18 11V6C18 3.17157 18 1.75736 17.1213 0.87868C16.6314 0.388793 15.9751 0.172031 15 0.0761193L15 2C15 3.10457 14.1046 4 13 4C11.8954 4 11 3.10457 11 2L11 0ZM4 8C4 7.44772 4.44772 7 5 7L13 7C13.5523 7 14 7.44771 14 8C14 8.55228 13.5523 9 13 9L5 9C4.44772 9 4 8.55229 4 8ZM5 11C4.44772 11 4 11.4477 4 12C4 12.5523 4.44772 13 5 13L13 13C13.5523 13 14 12.5523 14 12C14 11.4477 13.5523 11 13 11L5 11Z" fill="currentColor" />
    </symbol>
    <symbol id="wallet" width="100%" height="100%" viewBox="0 0 24 24">
      <path fill-rule="evenodd" clip-rule="evenodd" d="M20.4105 9.86058C20.3559 9.8571 20.2964 9.85712 20.2348 9.85715L20.2194 9.85715H17.8015C15.8086 9.85715 14.1033 11.4382 14.1033 13.5C14.1033 15.5618 15.8086 17.1429 17.8015 17.1429H20.2194L20.2348 17.1429C20.2964 17.1429 20.3559 17.1429 20.4105 17.1394C21.22 17.0879 21.9359 16.4495 21.9961 15.5577C22.0001 15.4992 22 15.4362 22 15.3778L22 15.3619V11.6381L22 11.6222C22 11.5638 22.0001 11.5008 21.9961 11.4423C21.9359 10.5506 21.22 9.91209 20.4105 9.86058ZM17.5872 14.4714C18.1002 14.4714 18.5162 14.0365 18.5162 13.5C18.5162 12.9635 18.1002 12.5286 17.5872 12.5286C17.0741 12.5286 16.6581 12.9635 16.6581 13.5C16.6581 14.0365 17.0741 14.4714 17.5872 14.4714Z" fill="currentColor" />
      <path fill-rule="evenodd" clip-rule="evenodd" d="M20.2341 18.6C20.3778 18.5963 20.4866 18.7304 20.4476 18.8699C20.2541 19.562 19.947 20.1518 19.4542 20.6485C18.7329 21.3755 17.8183 21.6981 16.6882 21.8512C15.5902 22 14.1872 22 12.4158 22H10.3794C8.60803 22 7.20501 22 6.10697 21.8512C4.97692 21.6981 4.06227 21.3755 3.34096 20.6485C2.61964 19.9215 2.29953 18.9997 2.1476 17.8608C1.99997 16.7541 1.99999 15.3401 2 13.5548V13.4452C1.99998 11.6599 1.99997 10.2459 2.1476 9.13924C2.29953 8.00031 2.61964 7.07848 3.34096 6.35149C4.06227 5.62451 4.97692 5.30188 6.10697 5.14876C7.205 4.99997 8.60802 4.99999 10.3794 5L12.4158 5C14.1872 4.99998 15.5902 4.99997 16.6882 5.14876C17.8183 5.30188 18.7329 5.62451 19.4542 6.35149C19.947 6.84817 20.2541 7.43804 20.4476 8.13012C20.4866 8.26959 20.3778 8.40376 20.2341 8.4L17.8015 8.40001C15.0673 8.40001 12.6575 10.5769 12.6575 13.5C12.6575 16.4231 15.0673 18.6 17.8015 18.6L20.2341 18.6ZM5.61446 8.88572C5.21522 8.88572 4.89157 9.21191 4.89157 9.61429C4.89157 10.0167 5.21522 10.3429 5.61446 10.3429H9.46988C9.86912 10.3429 10.1928 10.0167 10.1928 9.61429C10.1928 9.21191 9.86912 8.88572 9.46988 8.88572H5.61446Z" fill="currentColor" />
      <path d="M7.77668 4.02439L9.73549 2.58126C10.7874 1.80625 12.2126 1.80625 13.2645 2.58126L15.2336 4.03197C14.4103 3.99995 13.4909 3.99998 12.4829 4H10.3123C9.39123 3.99998 8.5441 3.99996 7.77668 4.02439Z" fill="currentColor" />
    </symbol>
    <symbol id="picture" width="100%" height="100%" viewBox="0 0 26 26">
      <path fill-rule="evenodd" clip-rule="evenodd" d="M4.17157 4.17187C3 5.34344 3 7.22906 3 11.0003V15.0003C3 18.7715 3 20.6572 4.17157 21.8287C5.34315 23.0003 7.22876 23.0003 11 23.0003H15C18.7712 23.0003 20.6569 23.0003 21.8284 21.8287C23 20.6572 23 18.7715 23 15.0003V15.0003V11.0003C23 8.16096 23 6.39048 22.5 5.18886V18.0003C21.5396 18.0003 20.6185 17.6188 19.9393 16.9396L19.1877 16.188C18.4664 15.4667 18.1057 15.106 17.6968 14.954C17.2473 14.787 16.7527 14.787 16.3032 14.954C15.8943 15.106 15.5336 15.4667 14.8123 16.188L14.6992 16.3011C14.1138 16.8865 13.8212 17.1791 13.5102 17.2337C13.2685 17.2761 13.0197 17.2282 12.811 17.0991C12.5425 16.9329 12.3795 16.5525 12.0534 15.7916L12 15.667C11.2504 13.9178 10.8755 13.0432 10.2217 12.7154C9.89249 12.5504 9.52413 12.4795 9.1572 12.5104C8.42836 12.5719 7.75554 13.2448 6.40989 14.5904L4.5 16.5003V3.8877C4.3844 3.9738 4.27519 4.06825 4.17157 4.17187Z" fill="currentColor" />
      <path d="M4 11C4 9.08611 4.00212 7.75129 4.13753 6.74416C4.26907 5.76579 4.50966 5.2477 4.87868 4.87868C5.2477 4.50966 5.76579 4.26907 6.74416 4.13753C7.75129 4.00212 9.08611 4 11 4H15C16.9139 4 18.2487 4.00212 19.2558 4.13753C20.2342 4.26907 20.7523 4.50966 21.1213 4.87868C21.4903 5.2477 21.7309 5.76579 21.8625 6.74416C21.9979 7.75129 22 9.08611 22 11V15C22 16.9139 21.9979 18.2487 21.8625 19.2558C21.7309 20.2342 21.4903 20.7523 21.1213 21.1213C20.7523 21.4903 20.2342 21.7309 19.2558 21.8625C18.2487 21.9979 16.9139 22 15 22H11C9.08611 22 7.75129 21.9979 6.74416 21.8625C5.76579 21.7309 5.2477 21.4903 4.87868 21.1213C4.50966 20.7523 4.26907 20.2342 4.13753 19.2558C4.00212 18.2487 4 16.9139 4 15V11Z" fill="none" stroke="currentColor" stroke-width="2" />
      <circle cx="16" cy="10" r="2" fill="currentColor" />
    </symbol>
    <symbol id="desctop" width="100%" height="100%" viewBox="0 0 26 26">
      <path fill-rule="evenodd" clip-rule="evenodd" d="M3.90039 6.50002C3.90039 5.06408 5.06445 3.90002 6.50039 3.90002H19.5004C20.9363 3.90002 22.1004 5.06408 22.1004 6.50002V16.9C22.1004 18.336 20.9363 19.5 19.5004 19.5H16.6154L16.7743 20.1354L17.8197 21.1808C18.1915 21.5526 18.3027 22.1117 18.1015 22.5975C17.9003 23.0833 17.4262 23.4 16.9004 23.4H9.10043C8.57463 23.4 8.1006 23.0833 7.89939 22.5975C7.69817 22.1117 7.80939 21.5526 8.18119 21.1808L9.22658 20.1354L9.38542 19.5H6.50039C5.06445 19.5 3.90039 18.336 3.90039 16.9V6.50002ZM11.4031 15.6C11.3839 15.5996 11.3648 15.5996 11.3458 15.6H6.50039V6.50002H19.5004V15.6H14.655C14.636 15.5996 14.6169 15.5996 14.5978 15.6H11.4031Z" fill="currentColor" />
    </symbol>
    <symbol id="chart-pie" width="100%" height="100%" viewBox="0 0 26 26">
      <path d="M2.59961 13C2.59961 7.25624 7.25585 2.60001 12.9996 2.60001V13H23.3996C23.3996 18.7438 18.7434 23.4 12.9996 23.4C7.25585 23.4 2.59961 18.7438 2.59961 13Z" fill="currentColor" />
      <path d="M15.5996 2.92755C19.2542 3.86818 22.1314 6.74541 23.072 10.4001H15.5996V2.92755Z" fill="currentColor" />
    </symbol>
    <symbol id="speakerphone" width="100%" height="100%" viewBox="0 0 26 26">
      <path d="M23.3996 3.90001C23.3996 3.44946 23.1663 3.03103 22.7831 2.79416C22.3998 2.55729 21.9212 2.53576 21.5182 2.73725L11.3927 7.80001H6.49961C4.3457 7.80001 2.59961 9.5461 2.59961 11.7C2.59961 13.8539 4.3457 15.6 6.49961 15.6H6.86263L9.16633 22.5111C9.34328 23.0419 9.84006 23.4 10.3996 23.4H11.6996C12.4176 23.4 12.9996 22.818 12.9996 22.1V16.4035L21.5182 20.6628C21.9212 20.8643 22.3998 20.8427 22.7831 20.6059C23.1663 20.369 23.3996 19.9506 23.3996 19.5V3.90001Z" fill="currentColor" />
    </symbol>
    <symbol id="pen" width="100%" height="100%" viewBox="0 0 26 26">
      <path fill-rule="evenodd" clip-rule="evenodd" d="M3.52051 23.8333C3.52051 23.3846 3.88428 23.0208 4.33301 23.0208H21.6663C22.1151 23.0208 22.4788 23.3846 22.4788 23.8333C22.4788 24.282 22.1151 24.6458 21.6663 24.6458H4.33301C3.88428 24.6458 3.52051 24.282 3.52051 23.8333Z" fill="currentColor" />
      <path d="M12.4797 16.1731L12.4798 16.173L18.8895 9.7633C18.0171 9.40021 16.9839 8.8038 16.0067 7.82661C15.0294 6.84927 14.4329 5.81586 14.0699 4.9434L7.65999 11.3533L7.65994 11.3533C7.15978 11.8535 6.90967 12.1036 6.69459 12.3793C6.44086 12.7046 6.22333 13.0566 6.04584 13.429C5.89538 13.7448 5.78353 14.0803 5.55983 14.7514L4.3802 18.2903C4.27011 18.6205 4.35607 18.9847 4.60222 19.2308C4.84838 19.477 5.21248 19.5629 5.54274 19.4528L9.08163 18.2732C9.75272 18.0495 10.0883 17.9377 10.404 17.7872C10.7764 17.6097 11.1284 17.3922 11.4537 17.1384C11.7294 16.9234 11.9796 16.6732 12.4797 16.1731Z" fill="currentColor" />
      <path d="M20.6681 7.98467C21.9991 6.65373 21.9991 4.49584 20.6681 3.16489C19.3372 1.83395 17.1793 1.83395 15.8484 3.16489L15.0796 3.93366C15.0901 3.96545 15.101 3.99768 15.1124 4.03033C15.3941 4.84252 15.9258 5.90723 16.926 6.90737C17.9261 7.90752 18.9908 8.43918 19.803 8.72096C19.8355 8.73223 19.8676 8.7431 19.8992 8.75358L20.6681 7.98467Z" fill="currentColor" />
    </symbol>
    <symbol id="album" width="100%" height="100%" viewBox="0 0 26 26">
      <path d="M18.7314 12.9661C18.7314 13.7663 18.0899 14.415 17.2985 14.415C16.5072 14.415 15.8657 13.7663 15.8657 12.9661C15.8657 12.1658 16.5072 11.5171 17.2985 11.5171C18.0899 11.5171 18.7314 12.1658 18.7314 12.9661Z" fill="currentColor" />
      <path fill-rule="evenodd" clip-rule="evenodd" d="M19.6426 8.02534C18.7235 7.89462 17.5388 7.89464 16.0623 7.89466H9.9377C8.46117 7.89464 7.27653 7.89462 6.35742 8.02534C5.40651 8.16059 4.61452 8.4508 4.0257 9.1309C3.43689 9.811 3.2571 10.6432 3.2502 11.6143C3.24354 12.5529 3.40013 13.7403 3.59529 15.2204L3.99121 18.2232C4.14375 19.3803 4.26722 20.3168 4.45917 21.0501C4.65898 21.8134 4.95396 22.4463 5.50748 22.9364C6.061 23.4264 6.72032 23.6385 7.49494 23.7379C8.23912 23.8334 9.17342 23.8334 10.3278 23.8334H15.6722C16.8266 23.8334 17.7609 23.8334 18.5051 23.7379C19.2797 23.6385 19.939 23.4264 20.4925 22.9364C21.046 22.4463 21.341 21.8134 21.5408 21.0501C21.7328 20.3168 21.8563 19.3802 22.0088 18.2231L22.4047 15.2204C22.5999 13.7403 22.7565 12.5529 22.7498 11.6143C22.7429 10.6432 22.5631 9.811 21.9743 9.1309C21.3855 8.4508 20.5935 8.16059 19.6426 8.02534ZM6.55698 9.46019C5.76949 9.5722 5.37119 9.77648 5.10376 10.0854C4.83632 10.3943 4.68872 10.8205 4.68302 11.6247C4.67716 12.4494 4.81869 13.5357 5.02301 15.0853L5.07718 15.4962L5.47973 15.2014C6.51853 14.4406 8.05337 14.478 9.04124 15.3048L12.7076 18.3737C13.0541 18.6637 13.6512 18.7179 14.0821 18.4644L14.337 18.3145C15.556 17.5974 17.1899 17.673 18.3148 18.5204L20.2993 20.0154C20.3971 19.4786 20.4848 18.8185 20.5949 17.9832L20.977 15.0853C21.1813 13.5357 21.3228 12.4494 21.317 11.6247C21.3113 10.8205 21.1637 10.3943 20.8962 10.0854C20.6288 9.77648 20.2305 9.5722 19.443 9.46019C18.6354 9.34532 17.5519 9.34363 16.006 9.34363H9.99398C8.44806 9.34363 7.36461 9.34532 6.55698 9.46019Z" fill="currentColor" />
      <path d="M9.5971 2.16669H16.4027C16.6294 2.16663 16.8032 2.16658 16.9551 2.1831C18.0352 2.30049 18.9193 3.02206 19.2942 3.99401H6.70563C7.08053 3.02206 7.96462 2.30049 9.04474 2.1831C9.19665 2.16658 9.37043 2.16663 9.5971 2.16669Z" fill="currentColor" />
      <path d="M7.45271 4.87502C6.09685 4.87502 4.9851 5.78474 4.61408 6.99161C4.60635 7.01677 4.59893 7.04206 4.59184 7.06747C4.98004 6.93685 5.38404 6.85152 5.79302 6.79326C6.84639 6.64321 8.1776 6.64329 9.72398 6.64338L9.83946 6.64339L16.4438 6.64338C17.9902 6.64329 19.3214 6.64321 20.3747 6.79326C20.7837 6.85152 21.1877 6.93685 21.5759 7.06747C21.5688 7.04206 21.5614 7.01677 21.5537 6.99161C21.1826 5.78474 20.0709 4.87502 18.715 4.87502H7.45271Z" fill="currentColor" />
    </symbol>
    <symbol id="settings" width="100%" height="100%" viewBox="0 0 26 26">
      <path fill-rule="evenodd" clip-rule="evenodd" d="M15.4687 2.33158C15.0675 2.16666 14.5589 2.16666 13.5417 2.16666C12.5244 2.16666 12.0158 2.16666 11.6146 2.33158C11.0797 2.55149 10.6547 2.97328 10.4331 3.50418C10.332 3.74653 10.2924 4.02837 10.2769 4.43948C10.2541 5.04364 9.94192 5.60287 9.41435 5.90516C8.88678 6.20745 8.24269 6.19616 7.70411 5.91364C7.33761 5.7214 7.07188 5.6145 6.80982 5.58026C6.23576 5.50525 5.6552 5.65964 5.19584 6.00946C4.85132 6.27182 4.59701 6.70896 4.0884 7.58325C3.57978 8.45754 3.32547 8.89468 3.26879 9.32197C3.19322 9.89169 3.34878 10.4679 3.70126 10.9238C3.86214 11.1318 4.08825 11.3068 4.43918 11.5256C4.95507 11.8473 5.28702 12.3953 5.28698 13C5.28695 13.6046 4.95502 14.1526 4.43918 14.4742C4.08819 14.6931 3.86205 14.868 3.70115 15.0761C3.34867 15.532 3.19311 16.1082 3.26869 16.6779C3.32537 17.1052 3.57967 17.5424 4.08829 18.4167C4.5969 19.2909 4.85121 19.7281 5.19573 19.9904C5.65509 20.3403 6.23566 20.4947 6.80972 20.4196C7.07176 20.3854 7.33748 20.2785 7.70394 20.0863C8.24256 19.8038 8.88669 19.7925 9.4143 20.0948C9.9419 20.3971 10.2541 20.9564 10.2769 21.5606C10.2924 21.9716 10.332 22.2535 10.4331 22.4958C10.6547 23.0267 11.0797 23.4485 11.6146 23.6684C12.0158 23.8333 12.5244 23.8333 13.5417 23.8333C14.5589 23.8333 15.0675 23.8333 15.4687 23.6684C16.0036 23.4485 16.4287 23.0267 16.6502 22.4958C16.7514 22.2534 16.791 21.9716 16.8065 21.5605C16.8292 20.9563 17.1414 20.3971 17.6689 20.0948C18.1965 19.7924 18.8407 19.8037 19.3793 20.0862C19.7458 20.2785 20.0115 20.3853 20.2735 20.4196C20.8476 20.4946 21.4281 20.3402 21.8875 19.9904C22.232 19.728 22.4863 19.2909 22.9949 18.4166C23.5036 17.5423 23.7579 17.1052 23.8145 16.6779C23.8901 16.1081 23.7346 15.532 23.3821 15.0761C23.2212 14.868 22.9951 14.693 22.6441 14.4742C22.1282 14.1525 21.7963 13.6045 21.7964 12.9999C21.7964 12.3953 22.1283 11.8474 22.6441 11.5258C22.9951 11.3069 23.2213 11.132 23.3822 10.9238C23.7347 10.4679 23.8902 9.89176 23.8146 9.32204C23.758 8.89475 23.5037 8.45761 22.995 7.58332C22.4864 6.70904 22.2321 6.27189 21.8876 6.00953C21.4282 5.65971 20.8477 5.50533 20.2736 5.58033C20.0116 5.61457 19.7459 5.72146 19.3794 5.91369C18.8408 6.19621 18.1966 6.20751 17.669 5.9052C17.1414 5.60289 16.8292 5.04362 16.8065 4.43942C16.791 4.02834 16.7514 3.74651 16.6502 3.50418C16.4287 2.97328 16.0036 2.55149 15.4687 2.33158ZM13.5417 16.25C15.3503 16.25 16.8164 14.7949 16.8164 13C16.8164 11.2051 15.3503 9.74999 13.5417 9.74999C11.7331 9.74999 10.2669 11.2051 10.2669 13C10.2669 14.7949 11.7331 16.25 13.5417 16.25Z" fill="currentColor" />
    </symbol>
    <symbol id="message" width="100%" height="100%" viewBox="0 0 26 26">
      <path d="M23.8337 6.5C23.8337 8.29493 22.3786 9.75 20.5837 9.75C18.7887 9.75 17.3337 8.29493 17.3337 6.5C17.3337 4.70507 18.7887 3.25 20.5837 3.25C22.3786 3.25 23.8337 4.70507 23.8337 6.5Z" fill="currentColor" />
      <path fill-rule="evenodd" clip-rule="evenodd" d="M15.167 5.41667H10.8337C6.74815 5.41667 4.7054 5.41667 3.4362 6.68587C2.16699 7.95507 2.16699 9.99783 2.16699 14.0833C2.16699 18.1688 2.16699 20.2116 3.4362 21.4808C4.7054 22.75 6.74815 22.75 10.8337 22.75H15.167C19.2525 22.75 21.2952 22.75 22.5645 21.4808C23.8337 20.2116 23.8337 18.1688 23.8337 14.0833C23.8337 12.5089 23.8337 11.2378 23.761 10.1974C22.9077 10.9314 21.7975 11.375 20.5837 11.375C20.0651 11.375 19.5654 11.294 19.0966 11.144L17.641 12.3571C16.6807 13.1573 15.9025 13.8059 15.2155 14.2477C14.5 14.7079 13.8032 14.9986 13.0003 14.9986C12.1975 14.9986 11.5006 14.7079 10.7851 14.2477C10.0982 13.8059 9.31993 13.1573 8.35971 12.3571L5.98018 10.3742C5.63545 10.0869 5.58887 9.57457 5.87615 9.22985C6.16342 8.88512 6.67575 8.83855 7.02047 9.12582L9.35928 11.0748C10.37 11.9171 11.0717 12.5 11.6641 12.881C12.2376 13.2498 12.6265 13.3736 13.0003 13.3736C13.3742 13.3736 13.7631 13.2498 14.3365 12.881C14.929 12.5 15.6307 11.9171 16.6414 11.0748L17.5508 10.317C16.4283 9.42385 15.7087 8.04596 15.7087 6.5C15.7087 6.12774 15.7504 5.76523 15.8294 5.41688C15.6148 5.41667 15.394 5.41667 15.167 5.41667Z" fill="currentColor" />
    </symbol>
    <symbol id="copy" width="100%" height="100%" viewBox="0 0 26 26">
      <path d="M16.51 2.16666H12.2913C10.3801 2.16665 8.8662 2.16664 7.68142 2.32656C6.4621 2.49116 5.47519 2.83795 4.69689 3.61937C3.9186 4.40079 3.57319 5.39166 3.40926 6.61588C3.24997 7.80542 3.24998 9.32535 3.25 11.2443V17.5683C3.25 19.2021 4.24662 20.6022 5.66277 21.1892C5.58988 20.2039 5.58993 18.8215 5.59 17.6714L5.59 12.3474L5.59 12.2443C5.58992 10.8558 5.58985 9.65947 5.71814 8.70145C5.85563 7.67474 6.16567 6.69057 6.96074 5.89231C7.75581 5.09404 8.73604 4.78275 9.75865 4.64472C10.7128 4.51591 11.9044 4.51598 13.2873 4.51606L13.39 4.51606H16.51L16.6127 4.51606C17.9956 4.51598 19.1846 4.51591 20.1388 4.64472C19.5679 3.19343 18.1584 2.16666 16.51 2.16666Z" fill="currentColor" />
      <path d="M7.15039 12.3472C7.15039 9.3938 7.15039 7.91711 8.06422 6.99961C8.97804 6.08212 10.4488 6.08212 13.3904 6.08212H16.5104C19.452 6.08212 20.9227 6.08212 21.8366 6.99961C22.7504 7.91711 22.7504 9.3938 22.7504 12.3472V17.5681C22.7504 20.5214 22.7504 21.9981 21.8366 22.9156C20.9227 23.8331 19.452 23.8331 16.5104 23.8331H13.3904C10.4488 23.8331 8.97804 23.8331 8.06422 22.9156C7.15039 21.9981 7.15039 20.5214 7.15039 17.5681V12.3472Z" fill="currentColor" />
    </symbol>
    <symbol id="virus" width="100%" height="100%" viewBox="0 0 26 26">
      <path fill-rule="evenodd" clip-rule="evenodd" d="M21.6667 5.95833C21.6667 6.85579 20.9391 7.58333 20.0417 7.58333C19.8961 7.58333 19.755 7.56419 19.6208 7.52829L18.937 8.21205C18.9122 8.23684 18.8862 8.25968 18.8592 8.2806C19.585 9.17435 20.1156 10.2321 20.3845 11.387C20.4497 11.3791 20.516 11.375 20.5833 11.375C21.4808 11.375 22.2083 12.1025 22.2083 13C22.2083 13.8975 21.4808 14.625 20.5833 14.625H20.434C20.1414 16.0728 19.4386 17.3593 18.4434 18.367L19.6747 19.609C19.809 19.5731 19.9501 19.554 20.0956 19.554C20.9931 19.554 21.7206 20.2815 21.7206 21.179C21.7206 22.0764 20.9931 22.804 20.0956 22.804C19.1982 22.804 18.4706 22.0764 18.4706 21.179C18.4706 21.0334 18.4898 20.8923 18.5257 20.758L17.3005 19.5329C17.2565 19.4889 17.2186 19.4411 17.1868 19.3906C16.6759 19.7212 16.1214 19.991 15.5334 20.1898L15.2986 20.854C14.9644 21.7997 14.0626 22.4792 13 22.4792C11.9374 22.4792 11.0356 21.7997 10.7014 20.854L10.4334 20.0956C9.89723 19.8941 9.38895 19.6344 8.91636 19.3242L7.42517 20.8525C7.52716 21.1039 7.58333 21.3787 7.58333 21.6667C7.58333 22.8633 6.61328 23.8333 5.41667 23.8333C4.22005 23.8333 3.25 22.8633 3.25 21.6667C3.25 20.47 4.22005 19.5 5.41667 19.5C5.72894 19.5 6.02579 19.5661 6.294 19.685L7.65385 18.2913C6.78904 17.4178 6.13007 16.3403 5.75825 15.1399C5.64698 15.1575 5.53289 15.1667 5.41667 15.1667C4.22005 15.1667 3.25 14.1966 3.25 13C3.25 11.8034 4.22005 10.8333 5.41667 10.8333C5.50989 10.8333 5.60174 10.8392 5.69187 10.8506C5.96538 9.86946 6.43314 8.9716 7.05165 8.20057L6.26292 7.41184C6.00293 7.52225 5.71693 7.58333 5.41667 7.58333C4.22005 7.58333 3.25 6.61328 3.25 5.41666C3.25 4.22005 4.22005 3.25 5.41667 3.25C6.61328 3.25 7.58333 4.22005 7.58333 5.41666C7.58333 5.71686 7.52228 6.0028 7.41192 6.26274L8.20071 7.05154C9.31024 6.16154 10.6824 5.58368 12.1875 5.44763V5.19927C11.7018 4.9183 11.375 4.39314 11.375 3.79166C11.375 2.8942 12.1025 2.16666 13 2.16666C13.8975 2.16666 14.625 2.8942 14.625 3.79166C14.625 4.39314 14.2982 4.9183 13.8125 5.19927V5.4737C15.2795 5.65359 16.6229 6.25032 17.7194 7.14077C17.7403 7.11377 17.7632 7.08779 17.7879 7.06301L18.4717 6.37924C18.4358 6.24499 18.4167 6.1039 18.4167 5.95833C18.4167 5.06087 19.1442 4.33333 20.0417 4.33333C20.9391 4.33333 21.6667 5.06087 21.6667 5.95833ZM12.7292 14.0833C12.7292 12.438 14.063 11.1042 15.7083 11.1042C17.3537 11.1042 18.6875 12.438 18.6875 14.0833C18.6875 15.7287 17.3537 17.0625 15.7083 17.0625C14.063 17.0625 12.7292 15.7287 12.7292 14.0833ZM11.375 10.8333C12.2725 10.8333 13 10.1058 13 9.20833C13 9.14548 12.9964 9.08346 12.9895 9.02247C12.93 8.49977 12.6225 8.05234 12.1875 7.80073C11.9485 7.66246 11.671 7.58333 11.375 7.58333C10.4775 7.58333 9.75 8.31087 9.75 9.20833C9.75 10.1058 10.4775 10.8333 11.375 10.8333ZM9.75 15.1667C10.3483 15.1667 10.8333 14.6816 10.8333 14.0833C10.8333 13.485 10.3483 13 9.75 13C9.15169 13 8.66667 13.485 8.66667 14.0833C8.66667 14.6816 9.15169 15.1667 9.75 15.1667Z" fill="currentColor" />
      <path d="M14.3542 14.0833C14.3542 13.3354 14.9604 12.7292 15.7083 12.7292C16.4562 12.7292 17.0625 13.3354 17.0625 14.0833C17.0625 14.8312 16.4562 15.4375 15.7083 15.4375C14.9604 15.4375 14.3542 14.8312 14.3542 14.0833Z" fill="currentColor" />
    </symbol>
  </defs>
</svg>